<svg width="26" height="30" viewBox="0 0 26 30" fill="none" xmlns="http://www.w3.org/2000/svg">
<path d="M12.167 20.0959C12.167 24.9617 10.3324 26.7261 9.41504 27.0001H15.7445C13.4329 25.685 13.1302 21.8494 13.2678 20.0959H12.167Z" fill="black"/>
<ellipse cx="12.5796" cy="8.75342" rx="4.81592" ry="5.75342" fill="black"/>
<ellipse cx="7.35108" cy="17.959" rx="4.81592" ry="5.75342" fill="black"/>
<path d="M15.0568 20.2603H11.3416C11.0665 20.0959 10.4335 19.6356 10.1033 19.1096C9.69048 18.452 9.69047 18.1233 9.41528 16.9726C9.14008 15.8219 9.41528 15.8219 9.41528 15.3288C9.41528 14.9342 10.1491 13.6301 10.5161 13.0274C11.204 12.6438 12.6351 11.8767 12.8552 11.8767C13.0754 11.8767 14.4147 12.9726 15.0568 13.5205V20.2603Z" fill="black"/>
<ellipse cx="18.0837" cy="17.959" rx="4.81592" ry="5.75342" fill="black"/>
</svg>
