<svg width="23" height="23" viewBox="0 0 23 23" fill="none" xmlns="http://www.w3.org/2000/svg">
<g clip-path="url(#clip0_52_1764)">
<path fill-rule="evenodd" clip-rule="evenodd" d="M0.766602 3.07717C0.766602 2.22454 1.45652 1.53333 2.31043 1.53333H20.6894C21.5421 1.53333 22.2333 2.22326 22.2333 3.07717V21.4562C22.2333 22.3088 21.5433 23 20.6894 23H2.31043C1.4578 23 0.766602 22.3101 0.766602 21.4562V3.07717ZM2.29993 7.66667H20.6999V21.4667H2.29993V7.66667ZM15.3333 17.6333V11.5H14.1947L12.2666 13.4402L13.0103 14.2218L14.0295 13.1828V17.6333H15.3333ZM9.19993 17.6333C10.5992 17.6333 11.4999 16.9123 11.4999 15.8886C11.4999 14.9984 10.7304 14.5266 10.1357 14.4643C10.7828 14.3486 11.4125 13.859 11.4125 13.1112C11.4125 12.1231 10.5729 11.5 9.20868 11.5C8.18549 11.5 7.45088 11.9006 6.97864 12.4436L7.59956 13.2359C8.01058 12.8353 8.51781 12.6216 9.08625 12.6216C9.68967 12.6216 10.1707 12.8531 10.1707 13.3249C10.1707 13.761 9.7334 13.9569 9.08625 13.9569C8.86762 13.9569 8.46533 13.9569 8.36039 13.948V15.0874C8.44784 15.0785 8.84138 15.0696 9.08625 15.0696C9.89956 15.0696 10.2581 15.2833 10.2581 15.7551C10.2581 16.2001 9.86457 16.5117 9.15621 16.5117C8.58776 16.5117 7.94936 16.2625 7.55583 15.8352L6.89993 16.6808C7.32845 17.215 8.13301 17.6333 9.19993 17.6333ZM5.3666 0.766667C5.3666 0.343249 5.69479 0 6.14045 0H7.65942C8.0868 0 8.43327 0.355632 8.43327 0.766667V1.53333H5.3666V0.766667ZM14.5666 0.766667C14.5666 0.343249 14.8948 0 15.3404 0H16.8594C17.2868 0 17.6333 0.355632 17.6333 0.766667V1.53333H14.5666V0.766667Z" fill="white"/>
</g>
<defs>
<clipPath id="clip0_52_1764">
<rect width="23" height="23" fill="white"/>
</clipPath>
</defs>
</svg>
