<svg width="21" height="22" viewBox="0 0 21 22" fill="none" xmlns="http://www.w3.org/2000/svg">
<g opacity="0.2">
<g clip-path="url(#clip0_30_3494)">
<path d="M0.875 10.5C0.875 10.5 4.375 3.5 10.5 3.5C16.625 3.5 20.125 10.5 20.125 10.5" stroke="black" stroke-width="2" stroke-linecap="round" stroke-linejoin="round"/>
<path d="M0.875 10.5C0.875 10.5 4.375 17.5 10.5 17.5C16.625 17.5 20.125 10.5 20.125 10.5" stroke="black" stroke-width="2" stroke-linecap="round" stroke-linejoin="round"/>
<path d="M10.5 13.125C11.9497 13.125 13.125 11.9497 13.125 10.5C13.125 9.05025 11.9497 7.875 10.5 7.875C9.05025 7.875 7.875 9.05025 7.875 10.5C7.875 11.9497 9.05025 13.125 10.5 13.125Z" stroke="black" stroke-width="2" stroke-linecap="round" stroke-linejoin="round"/>
</g>
<line x1="16.8384" y1="0.544988" x2="3.83844" y2="20.545" stroke="black" stroke-width="2"/>
</g>
<defs>
<clipPath id="clip0_30_3494">
<rect width="21" height="21" fill="white"/>
</clipPath>
</defs>
</svg>
