<svg width="37" height="37" viewBox="0 0 37 37" fill="none" xmlns="http://www.w3.org/2000/svg">
<circle cx="18.5" cy="18.5" r="18.5" fill="#FFCD01"/>
<path d="M18.5007 16.2623C20.8479 16.2623 22.7507 14.3607 22.7507 12.0149C22.7507 9.66919 20.8479 7.76758 18.5007 7.76758C16.1535 7.76758 14.2507 9.66919 14.2507 12.0149C14.2507 14.3607 16.1535 16.2623 18.5007 16.2623Z" fill="#222B44"/>
<path d="M27 22.4817C27 20.1359 25.0973 18.2344 22.75 18.2344H14.25C11.9028 18.2344 10 20.1359 10 22.4817V24.7291C10 25.8337 10.8954 26.7291 12 26.7291H25C26.1046 26.7291 27 25.8337 27 24.7291V22.4817Z" fill="#222B44"/>
</svg>
