<svg width="22" height="21" viewBox="0 0 22 21" fill="none" xmlns="http://www.w3.org/2000/svg">
<path d="M18.1619 3.05177C16.1966 1.08486 13.583 0.00110553 10.7984 0C5.06094 0 0.391334 4.66782 0.389038 10.4053C0.388301 12.2393 0.867618 14.0296 1.77852 15.6076L0.301758 21L5.8199 19.553C7.34031 20.382 9.05206 20.8188 10.7943 20.8196H10.7985C16.5354 20.8196 21.2055 16.1512 21.2078 10.4136C21.2089 7.63316 20.1272 5.01867 18.1619 3.05177ZM10.7985 19.0621H10.795C9.24253 19.0615 7.71985 18.6446 6.39148 17.8565L6.07553 17.6691L2.80099 18.5278L3.67503 15.3362L3.46926 15.0089C2.60321 13.6319 2.14581 12.0402 2.14649 10.406C2.14836 5.63725 6.02958 1.7575 10.8019 1.7575C13.1127 1.75838 15.2851 2.65925 16.9185 4.29404C18.552 5.92883 19.4511 8.10193 19.4503 10.413C19.4484 15.1821 15.5672 19.0621 10.7985 19.0621ZM15.5442 12.5844C15.2841 12.4543 14.0054 11.8252 13.767 11.7385C13.5286 11.6517 13.3552 11.6083 13.1817 11.8686C13.0084 12.1289 12.51 12.7146 12.3582 12.8881C12.2065 13.0616 12.0548 13.0833 11.7947 12.9532C11.5346 12.823 10.6965 12.5485 9.70308 11.6627C8.92992 10.9733 8.40788 10.1218 8.25617 9.86141C8.10446 9.60111 8.24004 9.46042 8.37024 9.33076C8.48722 9.21429 8.63032 9.02708 8.76037 8.87526C8.8904 8.72346 8.93377 8.61495 9.02046 8.44144C9.10717 8.2679 9.0638 8.11604 8.99877 7.9859C8.93377 7.85576 8.41358 6.57596 8.19684 6.05537C7.98574 5.54836 7.77127 5.61696 7.61162 5.60899C7.46008 5.60145 7.28651 5.59986 7.11314 5.59986C6.93977 5.59986 6.65797 5.66492 6.41958 5.92523C6.18118 6.18554 5.50927 6.81458 5.50927 8.09436C5.50927 9.37413 6.44123 10.6105 6.57129 10.784C6.70134 10.9576 8.4053 13.5839 11.0144 14.7101C11.635 14.978 12.1194 15.138 12.4972 15.2579C13.1202 15.4557 13.6872 15.4278 14.1354 15.3609C14.6351 15.2862 15.6742 14.7319 15.891 14.1245C16.1077 13.5171 16.1077 12.9966 16.0427 12.8881C15.9777 12.7797 15.8043 12.7146 15.5442 12.5844Z" fill="white"/>
</svg>
