<svg width="34" height="34" viewBox="0 0 34 34" fill="none" xmlns="http://www.w3.org/2000/svg">
<path fill-rule="evenodd" clip-rule="evenodd" d="M28.9147 13.9692C28.8373 13.9642 28.7531 13.9643 28.6658 13.9643H28.644H25.2186C22.3953 13.9643 19.9795 16.2041 19.9795 19.125C19.9795 22.0459 22.3953 24.2858 25.2186 24.2858H28.644H28.6658C28.7531 24.2858 28.8373 24.2858 28.9147 24.2808C30.0615 24.2079 31.0757 23.3035 31.161 22.0401C31.1666 21.9572 31.1665 21.8679 31.1665 21.7852V21.7627V16.4873V16.4648C31.1665 16.382 31.1666 16.2928 31.161 16.2099C31.0757 14.9467 30.0615 14.0421 28.9147 13.9692ZM24.915 20.5011C25.6418 20.5011 26.2311 19.885 26.2311 19.125C26.2311 18.365 25.6418 17.7488 24.915 17.7488C24.1881 17.7488 23.5988 18.365 23.5988 19.125C23.5988 19.885 24.1881 20.5011 24.915 20.5011Z" fill="white"/>
<path fill-rule="evenodd" clip-rule="evenodd" d="M28.6651 26.35C28.8687 26.3448 29.0228 26.5347 28.9676 26.7324C28.6935 27.7128 28.2584 28.5484 27.5603 29.252C26.5384 30.282 25.2428 30.739 23.6418 30.9559C22.0863 31.1667 20.0987 31.1667 17.5892 31.1667H14.7043C12.1949 31.1667 10.2073 31.1667 8.6517 30.9559C7.0508 30.739 5.75505 30.282 4.73319 29.252C3.71132 28.2221 3.25783 26.9162 3.0426 25.3028C2.83345 23.735 2.83348 21.7318 2.8335 19.2026V19.0474C2.83347 16.5182 2.83345 14.515 3.0426 12.9473C3.25783 11.3338 3.71132 10.0278 4.73319 8.99794C5.75505 7.96805 7.0508 7.51099 8.6517 7.29407C10.2072 7.08329 12.1949 7.08331 14.7043 7.08333H17.5892C20.0987 7.0833 22.0863 7.08329 23.6418 7.29407C25.2428 7.51099 26.5384 7.96805 27.5603 8.99794C28.2584 9.70157 28.6935 10.5372 28.9676 11.5177C29.0228 11.7152 28.8687 11.9053 28.6651 11.9L25.219 11.9C21.3455 11.9 17.9316 14.9839 17.9316 19.125C17.9316 23.2661 21.3455 26.35 25.219 26.35H28.6651ZM7.95398 12.5881C7.38839 12.5881 6.92989 13.0502 6.92989 13.6202C6.92989 14.1903 7.38839 14.6524 7.95398 14.6524H13.4158C13.9814 14.6524 14.44 14.1903 14.44 13.6202C14.44 13.0502 13.9814 12.5881 13.4158 12.5881H7.95398Z" fill="white"/>
<path d="M11.0171 5.70123L13.7921 3.65679C15.2823 2.55886 17.3013 2.55886 18.7915 3.65679L21.5811 5.71196C20.4147 5.6666 19.1122 5.66664 17.6842 5.66667H14.6092C13.3044 5.66664 12.1043 5.66662 11.0171 5.70123Z" fill="white"/>
</svg>
