<svg width="194" height="52" viewBox="0 0 194 52" fill="none" xmlns="http://www.w3.org/2000/svg">
<rect x="34" y="6" width="160" height="35" rx="5" fill="white"/>
<path d="M74.68 18.16V19.888H72.904V30H70.84V25.408L68.968 25.392C69 25.5947 69.016 25.792 69.016 25.984C69.016 26.9227 68.7173 27.6747 68.12 28.24C67.5227 28.8053 66.728 29.088 65.736 29.088C65.0107 29.088 64.3653 28.9493 63.8 28.672C63.2453 28.3947 62.8133 28.0053 62.504 27.504C62.1947 26.992 62.04 26.4107 62.04 25.76H63.976C63.976 26.208 64.1253 26.5813 64.424 26.88C64.7227 27.168 65.112 27.312 65.592 27.312C66.072 27.312 66.4507 27.1733 66.728 26.896C67.0053 26.608 67.144 26.24 67.144 25.792C67.144 25.3547 66.9947 24.9867 66.696 24.688C66.3973 24.3787 65.9547 24.224 65.368 24.224H64.68V22.56H65.368C65.88 22.56 66.28 22.4267 66.568 22.16C66.856 21.8933 67 21.568 67 21.184C67 20.7573 66.8613 20.416 66.584 20.16C66.3173 19.8933 65.9813 19.76 65.576 19.76C65.1387 19.76 64.776 19.888 64.488 20.144C64.2 20.4 64.056 20.7307 64.056 21.136H62.152C62.152 20.5173 62.296 19.9733 62.584 19.504C62.872 19.024 63.272 18.656 63.784 18.4C64.3067 18.144 64.904 18.016 65.576 18.016C66.5573 18.016 67.3467 18.2773 67.944 18.8C68.5413 19.3227 68.84 20.0213 68.84 20.896C68.84 21.4827 68.6853 21.9947 68.376 22.432C68.0667 22.8587 67.6293 23.1573 67.064 23.328V23.36C67.3413 23.4133 67.608 23.5253 67.864 23.696H70.84V18.16H74.68ZM85.3834 19.888H83.6074V30H81.5594V26.144C80.994 26.8587 80.162 27.216 79.0634 27.216C77.9327 27.216 77.0634 26.848 76.4554 26.112C75.8474 25.3653 75.5434 24.3787 75.5434 23.152V19.888H74.0234V18.16H85.3834V19.888ZM81.5594 19.888H77.6234V23.152C77.6234 23.8773 77.7834 24.448 78.1034 24.864C78.434 25.2693 78.93 25.472 79.5914 25.472C80.21 25.472 80.69 25.2747 81.0314 24.88C81.3834 24.4747 81.5594 23.9733 81.5594 23.376V19.888ZM98.3429 19.888H96.5669V30H94.5029V23.744H92.0869C92.4602 24.256 92.6469 24.8693 92.6469 25.584C92.6469 26.2133 92.5029 26.7573 92.2149 27.216C91.9269 27.6747 91.5322 28.0213 91.0309 28.256C90.5402 28.4907 89.9909 28.608 89.3829 28.608C88.7429 28.608 88.1615 28.4747 87.6389 28.208C87.1162 27.9413 86.7002 27.5627 86.3909 27.072C86.0815 26.5707 85.9269 25.984 85.9269 25.312C85.9269 24.608 86.0869 24.0107 86.4069 23.52C86.7269 23.0187 87.1589 22.6453 87.7029 22.4C88.2575 22.144 88.8762 22.016 89.5589 22.016H94.5029V19.888H84.7109V18.16H98.3429V19.888ZM89.4149 26.864C89.8735 26.864 90.2522 26.72 90.5509 26.432C90.8495 26.1333 90.9989 25.7547 90.9989 25.296C90.9989 24.848 90.8495 24.48 90.5509 24.192C90.2522 23.8933 89.8735 23.744 89.4149 23.744C88.9349 23.744 88.5402 23.8933 88.2309 24.192C87.9322 24.48 87.7829 24.8533 87.7829 25.312C87.7829 25.7707 87.9322 26.144 88.2309 26.432C88.5402 26.72 88.9349 26.864 89.4149 26.864ZM103.28 18.16V19.888H101.504V30H99.44V19.888H97.664V18.16H99.504V17.52C99.504 16.944 99.3973 16.4587 99.184 16.064C98.9707 15.6587 98.5813 15.456 98.016 15.456C97.44 15.456 97.0453 15.6587 96.832 16.064C96.608 16.4587 96.496 16.944 96.496 17.52V18.624H94.496V17.632C94.496 16.4267 94.7787 15.472 95.344 14.768C95.8987 14.064 96.7893 13.712 98.016 13.712C100.341 13.712 101.504 15.0187 101.504 17.632V18.16H103.28ZM110.094 18.832V30H107.854V18.832H110.094ZM116.211 18.832C117.384 18.832 118.414 19.0613 119.299 19.52C120.195 19.9787 120.883 20.6347 121.363 21.488C121.854 22.3307 122.099 23.312 122.099 24.432C122.099 25.552 121.854 26.5333 121.363 27.376C120.883 28.208 120.195 28.8533 119.299 29.312C118.414 29.7707 117.384 30 116.211 30H112.307V18.832H116.211ZM116.131 28.096C117.304 28.096 118.211 27.776 118.851 27.136C119.491 26.496 119.811 25.5947 119.811 24.432C119.811 23.2693 119.491 22.3627 118.851 21.712C118.211 21.0507 117.304 20.72 116.131 20.72H114.547V28.096H116.131ZM137.828 18.16V19.888H136.068V30H134.068V27.584C133.802 27.9787 133.434 28.2933 132.964 28.528C132.495 28.752 131.951 28.864 131.332 28.864C130.596 28.864 129.93 28.704 129.332 28.384C128.746 28.0533 128.282 27.5947 127.94 27.008C127.599 26.4107 127.428 25.7333 127.428 24.976C127.428 24.2293 127.594 23.568 127.924 22.992C128.266 22.416 128.73 21.968 129.316 21.648C129.903 21.328 130.564 21.168 131.3 21.168C131.908 21.168 132.442 21.28 132.9 21.504C133.37 21.728 133.759 22.032 134.068 22.416V19.888H126.148V18.16H137.828ZM131.732 22.528C131.103 22.528 130.564 22.7093 130.116 23.072L133.908 26.128C134.09 25.744 134.18 25.3547 134.18 24.96C134.18 24.5333 134.084 24.1333 133.892 23.76C133.7 23.3867 133.418 23.088 133.044 22.864C132.682 22.64 132.244 22.528 131.732 22.528ZM129.236 24.976C129.236 25.4667 129.348 25.8933 129.572 26.256C129.796 26.6187 130.1 26.896 130.484 27.088C130.868 27.28 131.284 27.376 131.732 27.376C132.372 27.376 132.916 27.1893 133.364 26.816L129.54 23.76C129.338 24.1333 129.236 24.5387 129.236 24.976ZM150.812 19.888H149.036V30H146.972V23.744H144.556C144.929 24.256 145.116 24.8693 145.116 25.584C145.116 26.2133 144.972 26.7573 144.684 27.216C144.396 27.6747 144.001 28.0213 143.5 28.256C143.009 28.4907 142.46 28.608 141.852 28.608C141.212 28.608 140.63 28.4747 140.108 28.208C139.585 27.9413 139.169 27.5627 138.86 27.072C138.55 26.5707 138.396 25.984 138.396 25.312C138.396 24.608 138.556 24.0107 138.876 23.52C139.196 23.0187 139.628 22.6453 140.172 22.4C140.726 22.144 141.345 22.016 142.028 22.016H146.972V19.888H137.18V18.16H150.812V19.888ZM141.884 26.864C142.342 26.864 142.721 26.72 143.02 26.432C143.318 26.1333 143.468 25.7547 143.468 25.296C143.468 24.848 143.318 24.48 143.02 24.192C142.721 23.8933 142.342 23.744 141.884 23.744C141.404 23.744 141.009 23.8933 140.7 24.192C140.401 24.48 140.252 24.8533 140.252 25.312C140.252 25.7707 140.401 26.144 140.7 26.432C141.009 26.72 141.404 26.864 141.884 26.864ZM161.509 18.16V19.888H159.749V30H157.733V27.472C157.455 27.888 157.082 28.2133 156.613 28.448C156.154 28.6827 155.626 28.8 155.029 28.8C154.303 28.8 153.663 28.64 153.109 28.32C152.565 27.9893 152.143 27.536 151.845 26.96C151.557 26.384 151.413 25.7227 151.413 24.976C151.413 24.2613 151.562 23.6213 151.861 23.056C152.159 22.4907 152.581 22.0533 153.125 21.744C153.679 21.424 154.314 21.264 155.029 21.264C155.637 21.264 156.17 21.3813 156.629 21.616C157.087 21.8507 157.455 22.176 157.733 22.592V19.888H150.133V18.16H161.509ZM155.573 27.152C156.031 27.152 156.421 27.0507 156.741 26.848C157.071 26.6453 157.317 26.384 157.477 26.064C157.647 25.744 157.733 25.408 157.733 25.056V25.04C157.733 24.464 157.541 23.968 157.157 23.552C156.783 23.136 156.255 22.928 155.573 22.928C154.954 22.928 154.442 23.12 154.037 23.504C153.642 23.888 153.445 24.3947 153.445 25.024C153.445 25.664 153.642 26.1813 154.037 26.576C154.442 26.96 154.954 27.152 155.573 27.152ZM162.628 30V19.888H160.851V18.16H166.468V19.888H164.692V30H162.628ZM176.893 19.888H175.341V21.376C175.341 22.4853 175.122 23.3227 174.685 23.888C174.248 24.4533 173.528 24.736 172.525 24.736C172.28 24.736 172.018 24.72 171.741 24.688V22.832C171.816 22.8427 171.928 22.848 172.077 22.848C172.514 22.848 172.834 22.7253 173.037 22.48C173.24 22.224 173.341 21.8347 173.341 21.312V19.888H169.629V25.744C169.629 26.448 169.794 26.992 170.125 27.376C170.456 27.7493 170.92 27.936 171.517 27.936C172.082 27.936 172.525 27.7707 172.845 27.44C173.165 27.1093 173.325 26.6507 173.325 26.064H175.341C175.341 27.2053 175 28.096 174.317 28.736C173.645 29.376 172.728 29.696 171.565 29.696C170.253 29.696 169.256 29.3333 168.573 28.608C167.901 27.8827 167.565 26.9013 167.565 25.664L167.549 19.888H165.789V18.16H176.893V19.888Z" fill="black"/>
<g clip-path="url(#clip0_69_357)">
<path d="M44.3411 7.55667C39.4743 2.68652 33.0029 0.00297139 26.1081 0C11.9003 0 0.337996 11.5586 0.332308 25.7658C0.330652 30.3072 1.51726 34.7403 3.77267 38.6479L0.115906 52L13.78 48.4171C17.5447 50.4702 21.7835 51.5521 26.0971 51.5539H26.108H26.1081C40.3137 51.5539 51.8777 39.9932 51.8838 25.7867C51.8861 18.9012 49.2073 12.4272 44.3411 7.55667ZM26.1081 47.2019H26.0998C22.2549 47.1999 18.4844 46.1676 15.1957 44.2161L14.413 43.7522L6.3045 45.8781L8.46937 37.9753L7.95944 37.165C5.81473 33.7549 4.68251 29.814 4.68412 25.7675C4.68883 13.9589 14.299 4.35211 26.1162 4.35211C31.8388 4.35449 37.2173 6.58507 41.2624 10.633C45.3073 14.6809 47.5333 20.062 47.5316 25.7849C47.5265 37.5938 37.9161 47.2019 26.1081 47.2019Z" fill="#E0E0E0"/>
<path d="M1.29913 50.5185L4.78886 37.7763C2.63592 34.0471 1.50373 29.8162 1.50509 25.4831C1.51074 11.9252 12.545 0.894897 26.1026 0.894897C32.6828 0.897869 38.8587 3.4587 43.5022 8.1065C48.1466 12.7543 50.7028 18.9322 50.7001 25.5024C50.6945 39.0607 39.6596 50.0919 26.1036 50.0919C26.1026 50.0919 26.1043 50.0919 26.1036 50.0919H26.0927C21.9761 50.0906 17.9313 49.0573 14.3388 47.0993L1.29913 50.5185Z" fill="url(#paint0_linear_69_357)"/>
<path fill-rule="evenodd" clip-rule="evenodd" d="M19.7386 14.827C19.2618 13.7667 18.7597 13.7455 18.306 13.727C17.9349 13.711 17.5101 13.712 17.0859 13.712C16.6614 13.712 15.9717 13.8715 15.3883 14.5086C14.8047 15.1457 13.1598 16.6857 13.1598 19.818C13.1598 22.9505 15.4414 25.9773 15.7594 26.4024C16.0778 26.8269 20.1638 33.4602 26.6348 36.012C32.0128 38.1328 33.1072 37.711 34.2746 37.6048C35.4419 37.4987 38.0412 36.0651 38.5718 34.5784C39.1024 33.092 39.1024 31.8179 38.9432 31.5516C38.784 31.2863 38.3596 31.1271 37.7228 30.8088C37.0861 30.4904 33.9562 28.95 33.3725 28.7377C32.7889 28.5255 32.3644 28.4194 31.9399 29.0568C31.5154 29.6935 30.296 31.1271 29.9246 31.5516C29.5532 31.9771 29.1817 32.0301 28.545 31.7118C27.9083 31.3924 25.8578 30.7208 23.4253 28.552C21.5327 26.8647 20.255 24.7807 19.8835 24.1433C19.5121 23.5066 19.8437 23.1617 20.1631 22.8443C20.4489 22.5591 20.7998 22.1011 21.1182 21.7294C21.4359 21.3576 21.542 21.0923 21.7542 20.6678C21.9665 20.2427 21.8604 19.8709 21.7012 19.5526C21.542 19.2342 20.3047 16.0858 19.7386 14.827Z" fill="white"/>
<path d="M44.1306 7.4748C39.3196 2.66055 32.9225 0.00786613 26.1069 0.00485229C12.0621 0.00485229 0.632568 11.4308 0.626922 25.4749C0.625267 29.9642 1.79824 34.3463 4.02776 38.2091L0.413025 51.4079L13.9202 47.8661C17.6418 49.8956 21.8319 50.9652 26.096 50.9668H26.1068H26.1069C40.1494 50.9668 51.5806 39.5389 51.5866 25.4954C51.5889 18.6891 48.9409 12.2894 44.1306 7.4748ZM26.1069 46.665H26.0986C22.2979 46.663 18.5707 45.6426 15.3197 43.7135L14.546 43.2548L6.53056 45.3564L8.67056 37.5442L8.16648 36.7433C6.0464 33.3723 4.92716 29.4767 4.92882 25.4766C4.93344 13.8036 14.4333 4.30709 26.1149 4.30709C31.7718 4.30942 37.0885 6.5144 41.0873 10.5158C45.0857 14.5173 47.2861 19.8366 47.2844 25.4939C47.2794 37.1671 37.7792 46.665 26.1069 46.665Z" fill="white"/>
</g>
<defs>
<linearGradient id="paint0_linear_69_357" x1="25.9997" y1="50.5185" x2="25.9997" y2="0.89498" gradientUnits="userSpaceOnUse">
<stop stop-color="#20B038"/>
<stop offset="1" stop-color="#60D66A"/>
</linearGradient>
<clipPath id="clip0_69_357">
<rect width="52" height="52" fill="white"/>
</clipPath>
</defs>
</svg>
