<svg width="463" height="39" viewBox="0 0 463 39" fill="none" xmlns="http://www.w3.org/2000/svg">
<path d="M462.997 29.1031C462.997 29.3166 462.991 29.7797 462.98 30.1374C462.952 31.0127 462.889 32.1421 462.795 32.6567C462.654 33.4301 462.44 34.16 462.161 34.7675C461.832 35.4862 461.411 36.13 460.912 36.6856C460.413 37.2401 459.836 37.7067 459.192 38.0725C458.644 38.3837 457.985 38.6219 457.287 38.7789C456.83 38.8818 455.824 38.9498 455.043 38.9808C454.722 38.9936 454.306 39 454.115 39L8.88218 38.9969C8.69053 38.9969 8.27498 38.9904 7.95393 38.9775C7.16838 38.9462 6.15475 38.8768 5.69288 38.7719C4.99883 38.6141 4.34371 38.3761 3.79848 38.0657C3.15344 37.6984 2.5757 37.23 2.07706 36.6734C1.5794 36.1179 1.16064 35.4748 0.83241 34.7572C0.553026 34.1464 0.339267 33.4119 0.198344 32.6342C0.106059 32.1247 0.0449803 31.0037 0.0171923 30.134C0.00577635 29.776 0 29.3128 0 29.1001L0.00273437 9.89693C0.00273437 9.68339 0.00857907 9.22032 0.0200976 8.8626C0.0482957 7.98731 0.110537 6.85788 0.204701 6.34328C0.346239 5.56994 0.559862 4.83998 0.838459 4.23242C1.16805 3.51373 1.5885 2.86996 2.08803 2.31435C2.58651 1.75988 3.16373 1.29323 3.80778 0.927467C4.35591 0.616242 5.01514 0.378063 5.71312 0.221041C6.17034 0.118176 7.17641 0.0501189 7.95694 0.0191945C8.27829 0.00643625 8.69402 0 8.88488 0L454.118 0.00308483C454.309 0.00308483 454.725 0.00959725 455.046 0.0224317C455.832 0.0538512 456.845 0.123203 457.307 0.228125C458.001 0.385832 458.656 0.623859 459.202 0.934284C459.847 1.30153 460.424 1.77001 460.923 2.32661C461.421 2.88203 461.839 3.52516 462.168 4.24282C462.447 4.85358 462.661 5.58807 462.802 6.36579C462.894 6.87528 462.955 7.99626 462.983 8.86599C462.994 9.22406 463 9.68724 463 9.89998L462.997 29.1031Z" fill="url(#paint0_linear_48_983)"/>
<path d="M53.3359 14.228V15.81H49.2619V18.316H52.3839V19.87H49.2619V24H47.3019V14.228H53.3359ZM59.2618 24.098C58.3471 24.098 57.5071 23.8833 56.7418 23.454C55.9764 23.0247 55.3698 22.432 54.9218 21.676C54.4738 20.9107 54.2498 20.0473 54.2498 19.086C54.2498 18.134 54.4738 17.28 54.9218 16.524C55.3698 15.7587 55.9764 15.1613 56.7418 14.732C57.5071 14.3027 58.3471 14.088 59.2618 14.088C60.1858 14.088 61.0258 14.3027 61.7818 14.732C62.5471 15.1613 63.1491 15.7587 63.5878 16.524C64.0358 17.28 64.2598 18.134 64.2598 19.086C64.2598 20.0473 64.0358 20.9107 63.5878 21.676C63.1491 22.432 62.5471 23.0247 61.7818 23.454C61.0164 23.8833 60.1764 24.098 59.2618 24.098ZM59.2618 22.348C59.8498 22.348 60.3678 22.2173 60.8158 21.956C61.2638 21.6853 61.6138 21.3027 61.8658 20.808C62.1178 20.3133 62.2438 19.7393 62.2438 19.086C62.2438 18.4327 62.1178 17.8633 61.8658 17.378C61.6138 16.8833 61.2638 16.5053 60.8158 16.244C60.3678 15.9827 59.8498 15.852 59.2618 15.852C58.6738 15.852 58.1511 15.9827 57.6938 16.244C57.2458 16.5053 56.8958 16.8833 56.6438 17.378C56.3918 17.8633 56.2658 18.4327 56.2658 19.086C56.2658 19.7393 56.3918 20.3133 56.6438 20.808C56.8958 21.3027 57.2458 21.6853 57.6938 21.956C58.1511 22.2173 58.6738 22.348 59.2618 22.348ZM70.758 24L68.602 20.192H67.678V24H65.718V14.228H69.386C70.142 14.228 70.786 14.3633 71.318 14.634C71.85 14.8953 72.2466 15.2547 72.508 15.712C72.7786 16.16 72.914 16.664 72.914 17.224C72.914 17.868 72.7273 18.4513 72.354 18.974C71.9806 19.4873 71.4253 19.842 70.688 20.038L73.026 24H70.758ZM67.678 18.722H69.316C69.848 18.722 70.2446 18.596 70.506 18.344C70.7673 18.0827 70.898 17.7233 70.898 17.266C70.898 16.818 70.7673 16.4727 70.506 16.23C70.2446 15.978 69.848 15.852 69.316 15.852H67.678V18.722ZM91.0846 14.228L88.3546 24H86.0446L84.2106 17.042L82.2926 24L79.9966 24.014L77.3646 14.228H79.4646L81.1866 21.816L83.1746 14.228H85.3586L87.2346 21.774L88.9706 14.228H91.0846ZM94.3244 14.228V24H92.3644V14.228H94.3244ZM102.911 14.228V15.81H100.307V24H98.3469V15.81H95.7429V14.228H102.911ZM112.447 14.228V24H110.487V19.842H106.301V24H104.341V14.228H106.301V18.246H110.487V14.228H112.447ZM117.792 14.228C118.819 14.228 119.719 14.4287 120.494 14.83C121.278 15.2313 121.88 15.8053 122.3 16.552C122.729 17.2893 122.944 18.148 122.944 19.128C122.944 20.108 122.729 20.9667 122.3 21.704C121.88 22.432 121.278 22.9967 120.494 23.398C119.719 23.7993 118.819 24 117.792 24H114.376V14.228H117.792ZM117.722 22.334C118.749 22.334 119.542 22.054 120.102 21.494C120.662 20.934 120.942 20.1453 120.942 19.128C120.942 18.1107 120.662 17.3173 120.102 16.748C119.542 16.1693 118.749 15.88 117.722 15.88H116.336V22.334H117.722ZM129.451 24L127.295 20.192H126.371V24H124.411V14.228H128.079C128.835 14.228 129.479 14.3633 130.011 14.634C130.543 14.8953 130.94 15.2547 131.201 15.712C131.472 16.16 131.607 16.664 131.607 17.224C131.607 17.868 131.421 18.4513 131.047 18.974C130.674 19.4873 130.119 19.842 129.381 20.038L131.719 24H129.451ZM126.371 18.722H128.009C128.541 18.722 128.938 18.596 129.199 18.344C129.461 18.0827 129.591 17.7233 129.591 17.266C129.591 16.818 129.461 16.4727 129.199 16.23C128.938 15.978 128.541 15.852 128.009 15.852H126.371V18.722ZM139.372 22.138H135.48L134.836 24H132.778L136.292 14.214H138.574L142.088 24H140.016L139.372 22.138ZM138.84 20.57L137.426 16.482L136.012 20.57H138.84ZM156.464 14.228L153.734 24H151.424L149.59 17.042L147.672 24L145.376 24.014L142.744 14.228H144.844L146.566 21.816L148.554 14.228H150.738L152.614 21.774L154.35 14.228H156.464ZM168.597 24L167.533 22.95C166.628 23.762 165.522 24.168 164.215 24.168C163.497 24.168 162.862 24.0467 162.311 23.804C161.77 23.552 161.35 23.202 161.051 22.754C160.753 22.2967 160.603 21.7693 160.603 21.172C160.603 20.528 160.785 19.9493 161.149 19.436C161.513 18.9227 162.05 18.5073 162.759 18.19C162.507 17.882 162.325 17.588 162.213 17.308C162.101 17.0187 162.045 16.7107 162.045 16.384C162.045 15.936 162.162 15.5347 162.395 15.18C162.629 14.816 162.96 14.5313 163.389 14.326C163.828 14.1207 164.337 14.018 164.915 14.018C165.503 14.018 166.007 14.13 166.427 14.354C166.847 14.578 167.16 14.8767 167.365 15.25C167.571 15.6233 167.659 16.0387 167.631 16.496H165.727C165.737 16.188 165.662 15.9547 165.503 15.796C165.345 15.628 165.13 15.544 164.859 15.544C164.598 15.544 164.379 15.6233 164.201 15.782C164.033 15.9313 163.949 16.1273 163.949 16.37C163.949 16.6033 164.019 16.8367 164.159 17.07C164.299 17.294 164.528 17.574 164.845 17.91L167.309 20.346C167.328 20.3273 167.342 20.3087 167.351 20.29C167.361 20.2713 167.37 20.2527 167.379 20.234L168.177 18.904H170.221L169.241 20.626C169.055 20.99 168.854 21.3353 168.639 21.662L171.005 24H168.597ZM164.271 22.544C165.037 22.544 165.713 22.2733 166.301 21.732L163.893 19.352C162.988 19.7533 162.535 20.3227 162.535 21.06C162.535 21.48 162.694 21.8347 163.011 22.124C163.329 22.404 163.749 22.544 164.271 22.544ZM182.438 17.252C182.438 17.7747 182.312 18.2647 182.06 18.722C181.817 19.1793 181.43 19.548 180.898 19.828C180.375 20.108 179.712 20.248 178.91 20.248H177.272V24H175.312V14.228H178.91C179.666 14.228 180.31 14.3587 180.842 14.62C181.374 14.8813 181.77 15.2407 182.032 15.698C182.302 16.1553 182.438 16.6733 182.438 17.252ZM178.826 18.666C179.367 18.666 179.768 18.5447 180.03 18.302C180.291 18.05 180.422 17.7 180.422 17.252C180.422 16.3 179.89 15.824 178.826 15.824H177.272V18.666H178.826ZM189.821 22.138H185.929L185.285 24H183.227L186.741 14.214H189.023L192.537 24H190.465L189.821 22.138ZM189.289 20.57L187.875 16.482L186.461 20.57H189.289ZM197.225 24.098C196.543 24.098 195.927 23.9813 195.377 23.748C194.835 23.5147 194.406 23.1787 194.089 22.74C193.771 22.3013 193.608 21.7833 193.599 21.186H195.699C195.727 21.5873 195.867 21.9047 196.119 22.138C196.38 22.3713 196.735 22.488 197.183 22.488C197.64 22.488 197.999 22.3807 198.261 22.166C198.522 21.942 198.653 21.6527 198.653 21.298C198.653 21.0087 198.564 20.7707 198.387 20.584C198.209 20.3973 197.985 20.2527 197.715 20.15C197.453 20.038 197.089 19.9167 196.623 19.786C195.988 19.5993 195.47 19.4173 195.069 19.24C194.677 19.0533 194.336 18.778 194.047 18.414C193.767 18.0407 193.627 17.546 193.627 16.93C193.627 16.3513 193.771 15.8473 194.061 15.418C194.35 14.9887 194.756 14.662 195.279 14.438C195.801 14.2047 196.399 14.088 197.071 14.088C198.079 14.088 198.895 14.3353 199.521 14.83C200.155 15.3153 200.505 15.9967 200.571 16.874H198.415C198.396 16.538 198.251 16.2627 197.981 16.048C197.719 15.824 197.369 15.712 196.931 15.712C196.548 15.712 196.24 15.81 196.007 16.006C195.783 16.202 195.671 16.4867 195.671 16.86C195.671 17.1213 195.755 17.3407 195.923 17.518C196.1 17.686 196.315 17.826 196.567 17.938C196.828 18.0407 197.192 18.162 197.659 18.302C198.293 18.4887 198.811 18.6753 199.213 18.862C199.614 19.0487 199.959 19.3287 200.249 19.702C200.538 20.0753 200.683 20.5653 200.683 21.172C200.683 21.6947 200.547 22.18 200.277 22.628C200.006 23.076 199.609 23.4353 199.087 23.706C198.564 23.9673 197.943 24.098 197.225 24.098ZM205.756 24.098C205.075 24.098 204.459 23.9813 203.908 23.748C203.367 23.5147 202.937 23.1787 202.62 22.74C202.303 22.3013 202.139 21.7833 202.13 21.186H204.23C204.258 21.5873 204.398 21.9047 204.65 22.138C204.911 22.3713 205.266 22.488 205.714 22.488C206.171 22.488 206.531 22.3807 206.792 22.166C207.053 21.942 207.184 21.6527 207.184 21.298C207.184 21.0087 207.095 20.7707 206.918 20.584C206.741 20.3973 206.517 20.2527 206.246 20.15C205.985 20.038 205.621 19.9167 205.154 19.786C204.519 19.5993 204.001 19.4173 203.6 19.24C203.208 19.0533 202.867 18.778 202.578 18.414C202.298 18.0407 202.158 17.546 202.158 16.93C202.158 16.3513 202.303 15.8473 202.592 15.418C202.881 14.9887 203.287 14.662 203.81 14.438C204.333 14.2047 204.93 14.088 205.602 14.088C206.61 14.088 207.427 14.3353 208.052 14.83C208.687 15.3153 209.037 15.9967 209.102 16.874H206.946C206.927 16.538 206.783 16.2627 206.512 16.048C206.251 15.824 205.901 15.712 205.462 15.712C205.079 15.712 204.771 15.81 204.538 16.006C204.314 16.202 204.202 16.4867 204.202 16.86C204.202 17.1213 204.286 17.3407 204.454 17.518C204.631 17.686 204.846 17.826 205.098 17.938C205.359 18.0407 205.723 18.162 206.19 18.302C206.825 18.4887 207.343 18.6753 207.744 18.862C208.145 19.0487 208.491 19.3287 208.78 19.702C209.069 20.0753 209.214 20.5653 209.214 21.172C209.214 21.6947 209.079 22.18 208.808 22.628C208.537 23.076 208.141 23.4353 207.618 23.706C207.095 23.9673 206.475 24.098 205.756 24.098ZM223.975 14.228L221.245 24H218.935L217.101 17.042L215.183 24L212.887 24.014L210.255 14.228H212.355L214.077 21.816L216.065 14.228H218.249L220.125 21.774L221.861 14.228H223.975ZM229.791 24.098C228.876 24.098 228.036 23.8833 227.271 23.454C226.506 23.0247 225.899 22.432 225.451 21.676C225.003 20.9107 224.779 20.0473 224.779 19.086C224.779 18.134 225.003 17.28 225.451 16.524C225.899 15.7587 226.506 15.1613 227.271 14.732C228.036 14.3027 228.876 14.088 229.791 14.088C230.715 14.088 231.555 14.3027 232.311 14.732C233.076 15.1613 233.678 15.7587 234.117 16.524C234.565 17.28 234.789 18.134 234.789 19.086C234.789 20.0473 234.565 20.9107 234.117 21.676C233.678 22.432 233.076 23.0247 232.311 23.454C231.546 23.8833 230.706 24.098 229.791 24.098ZM229.791 22.348C230.379 22.348 230.897 22.2173 231.345 21.956C231.793 21.6853 232.143 21.3027 232.395 20.808C232.647 20.3133 232.773 19.7393 232.773 19.086C232.773 18.4327 232.647 17.8633 232.395 17.378C232.143 16.8833 231.793 16.5053 231.345 16.244C230.897 15.9827 230.379 15.852 229.791 15.852C229.203 15.852 228.68 15.9827 228.223 16.244C227.775 16.5053 227.425 16.8833 227.173 17.378C226.921 17.8633 226.795 18.4327 226.795 19.086C226.795 19.7393 226.921 20.3133 227.173 20.808C227.425 21.3027 227.775 21.6853 228.223 21.956C228.68 22.2173 229.203 22.348 229.791 22.348ZM241.287 24L239.131 20.192H238.207V24H236.247V14.228H239.915C240.671 14.228 241.315 14.3633 241.847 14.634C242.379 14.8953 242.776 15.2547 243.037 15.712C243.308 16.16 243.443 16.664 243.443 17.224C243.443 17.868 243.257 18.4513 242.883 18.974C242.51 19.4873 241.955 19.842 241.217 20.038L243.555 24H241.287ZM238.207 18.722H239.845C240.377 18.722 240.774 18.596 241.035 18.344C241.297 18.0827 241.427 17.7233 241.427 17.266C241.427 16.818 241.297 16.4727 241.035 16.23C240.774 15.978 240.377 15.852 239.845 15.852H238.207V18.722ZM248.632 14.228C249.659 14.228 250.559 14.4287 251.334 14.83C252.118 15.2313 252.72 15.8053 253.14 16.552C253.569 17.2893 253.784 18.148 253.784 19.128C253.784 20.108 253.569 20.9667 253.14 21.704C252.72 22.432 252.118 22.9967 251.334 23.398C250.559 23.7993 249.659 24 248.632 24H245.216V14.228H248.632ZM248.562 22.334C249.589 22.334 250.382 22.054 250.942 21.494C251.502 20.934 251.782 20.1453 251.782 19.128C251.782 18.1107 251.502 17.3173 250.942 16.748C250.382 16.1693 249.589 15.88 248.562 15.88H247.176V22.334H248.562ZM263.627 24L261.471 20.192H260.547V24H258.587V14.228H262.255C263.011 14.228 263.655 14.3633 264.187 14.634C264.719 14.8953 265.116 15.2547 265.377 15.712C265.648 16.16 265.783 16.664 265.783 17.224C265.783 17.868 265.596 18.4513 265.223 18.974C264.85 19.4873 264.294 19.842 263.557 20.038L265.895 24H263.627ZM260.547 18.722H262.185C262.717 18.722 263.114 18.596 263.375 18.344C263.636 18.0827 263.767 17.7233 263.767 17.266C263.767 16.818 263.636 16.4727 263.375 16.23C263.114 15.978 262.717 15.852 262.185 15.852H260.547V18.722ZM269.516 15.81V18.26H272.806V19.814H269.516V22.404H273.226V24H267.556V14.214H273.226V15.81H269.516ZM276.967 22.446H280.187V24H275.007V14.228H276.967V22.446ZM287.425 22.138H283.533L282.889 24H280.831L284.345 14.214H286.627L290.141 24H288.069L287.425 22.138ZM286.893 20.57L285.479 16.482L284.065 20.57H286.893ZM298.104 14.228V15.81H295.5V24H293.54V15.81H290.936V14.228H298.104ZM301.494 15.81V18.26H304.784V19.814H301.494V22.404H305.204V24H299.534V14.214H305.204V15.81H301.494ZM310.402 14.228C311.428 14.228 312.329 14.4287 313.104 14.83C313.888 15.2313 314.49 15.8053 314.91 16.552C315.339 17.2893 315.554 18.148 315.554 19.128C315.554 20.108 315.339 20.9667 314.91 21.704C314.49 22.432 313.888 22.9967 313.104 23.398C312.329 23.7993 311.428 24 310.402 24H306.986V14.228H310.402ZM310.332 22.334C311.358 22.334 312.152 22.054 312.712 21.494C313.272 20.934 313.552 20.1453 313.552 19.128C313.552 18.1107 313.272 17.3173 312.712 16.748C312.152 16.1693 311.358 15.88 310.332 15.88H308.946V22.334H310.332ZM322.317 14.228V24H320.357V14.228H322.317ZM327.627 24.098C326.946 24.098 326.33 23.9813 325.779 23.748C325.238 23.5147 324.808 23.1787 324.491 22.74C324.174 22.3013 324.01 21.7833 324.001 21.186H326.101C326.129 21.5873 326.269 21.9047 326.521 22.138C326.782 22.3713 327.137 22.488 327.585 22.488C328.042 22.488 328.402 22.3807 328.663 22.166C328.924 21.942 329.055 21.6527 329.055 21.298C329.055 21.0087 328.966 20.7707 328.789 20.584C328.612 20.3973 328.388 20.2527 328.117 20.15C327.856 20.038 327.492 19.9167 327.025 19.786C326.39 19.5993 325.872 19.4173 325.471 19.24C325.079 19.0533 324.738 18.778 324.449 18.414C324.169 18.0407 324.029 17.546 324.029 16.93C324.029 16.3513 324.174 15.8473 324.463 15.418C324.752 14.9887 325.158 14.662 325.681 14.438C326.204 14.2047 326.801 14.088 327.473 14.088C328.481 14.088 329.298 14.3353 329.923 14.83C330.558 15.3153 330.908 15.9967 330.973 16.874H328.817C328.798 16.538 328.654 16.2627 328.383 16.048C328.122 15.824 327.772 15.712 327.333 15.712C326.95 15.712 326.642 15.81 326.409 16.006C326.185 16.202 326.073 16.4867 326.073 16.86C326.073 17.1213 326.157 17.3407 326.325 17.518C326.502 17.686 326.717 17.826 326.969 17.938C327.23 18.0407 327.594 18.162 328.061 18.302C328.696 18.4887 329.214 18.6753 329.615 18.862C330.016 19.0487 330.362 19.3287 330.651 19.702C330.94 20.0753 331.085 20.5653 331.085 21.172C331.085 21.6947 330.95 22.18 330.679 22.628C330.408 23.076 330.012 23.4353 329.489 23.706C328.966 23.9673 328.346 24.098 327.627 24.098ZM336.158 24.098C335.477 24.098 334.861 23.9813 334.31 23.748C333.769 23.5147 333.34 23.1787 333.022 22.74C332.705 22.3013 332.542 21.7833 332.532 21.186H334.632C334.66 21.5873 334.8 21.9047 335.052 22.138C335.314 22.3713 335.668 22.488 336.116 22.488C336.574 22.488 336.933 22.3807 337.194 22.166C337.456 21.942 337.586 21.6527 337.586 21.298C337.586 21.0087 337.498 20.7707 337.32 20.584C337.143 20.3973 336.919 20.2527 336.648 20.15C336.387 20.038 336.023 19.9167 335.556 19.786C334.922 19.5993 334.404 19.4173 334.002 19.24C333.61 19.0533 333.27 18.778 332.98 18.414C332.7 18.0407 332.56 17.546 332.56 16.93C332.56 16.3513 332.705 15.8473 332.994 15.418C333.284 14.9887 333.69 14.662 334.212 14.438C334.735 14.2047 335.332 14.088 336.004 14.088C337.012 14.088 337.829 14.3353 338.454 14.83C339.089 15.3153 339.439 15.9967 339.504 16.874H337.348C337.33 16.538 337.185 16.2627 336.914 16.048C336.653 15.824 336.303 15.712 335.864 15.712C335.482 15.712 335.174 15.81 334.94 16.006C334.716 16.202 334.604 16.4867 334.604 16.86C334.604 17.1213 334.688 17.3407 334.856 17.518C335.034 17.686 335.248 17.826 335.5 17.938C335.762 18.0407 336.126 18.162 336.592 18.302C337.227 18.4887 337.745 18.6753 338.146 18.862C338.548 19.0487 338.893 19.3287 339.182 19.702C339.472 20.0753 339.616 20.5653 339.616 21.172C339.616 21.6947 339.481 22.18 339.21 22.628C338.94 23.076 338.543 23.4353 338.02 23.706C337.498 23.9673 336.877 24.098 336.158 24.098ZM343.248 14.228V20.276C343.248 20.9387 343.42 21.4473 343.766 21.802C344.111 22.1473 344.596 22.32 345.222 22.32C345.856 22.32 346.346 22.1473 346.692 21.802C347.037 21.4473 347.21 20.9387 347.21 20.276V14.228H349.184V20.262C349.184 21.0927 349.002 21.7973 348.638 22.376C348.283 22.9453 347.802 23.3747 347.196 23.664C346.598 23.9533 345.931 24.098 345.194 24.098C344.466 24.098 343.803 23.9533 343.206 23.664C342.618 23.3747 342.151 22.9453 341.806 22.376C341.46 21.7973 341.288 21.0927 341.288 20.262V14.228H343.248ZM353.037 15.81V18.26H356.327V19.814H353.037V22.404H356.747V24H351.077V14.214H356.747V15.81H353.037ZM361.903 24.098C361.221 24.098 360.605 23.9813 360.055 23.748C359.513 23.5147 359.084 23.1787 358.767 22.74C358.449 22.3013 358.286 21.7833 358.277 21.186H360.377C360.405 21.5873 360.545 21.9047 360.797 22.138C361.058 22.3713 361.413 22.488 361.861 22.488C362.318 22.488 362.677 22.3807 362.939 22.166C363.2 21.942 363.331 21.6527 363.331 21.298C363.331 21.0087 363.242 20.7707 363.065 20.584C362.887 20.3973 362.663 20.2527 362.393 20.15C362.131 20.038 361.767 19.9167 361.301 19.786C360.666 19.5993 360.148 19.4173 359.747 19.24C359.355 19.0533 359.014 18.778 358.725 18.414C358.445 18.0407 358.305 17.546 358.305 16.93C358.305 16.3513 358.449 15.8473 358.739 15.418C359.028 14.9887 359.434 14.662 359.957 14.438C360.479 14.2047 361.077 14.088 361.749 14.088C362.757 14.088 363.573 14.3353 364.199 14.83C364.833 15.3153 365.183 15.9967 365.249 16.874H363.093C363.074 16.538 362.929 16.2627 362.659 16.048C362.397 15.824 362.047 15.712 361.609 15.712C361.226 15.712 360.918 15.81 360.685 16.006C360.461 16.202 360.349 16.4867 360.349 16.86C360.349 17.1213 360.433 17.3407 360.601 17.518C360.778 17.686 360.993 17.826 361.245 17.938C361.506 18.0407 361.87 18.162 362.337 18.302C362.971 18.4887 363.489 18.6753 363.891 18.862C364.292 19.0487 364.637 19.3287 364.927 19.702C365.216 20.0753 365.361 20.5653 365.361 21.172C365.361 21.6947 365.225 22.18 364.954 22.628C364.684 23.076 364.287 23.4353 363.765 23.706C363.242 23.9673 362.621 24.098 361.903 24.098ZM369.92 19.1C369.92 18.1387 370.134 17.28 370.564 16.524C371.002 15.7587 371.595 15.166 372.342 14.746C373.098 14.3167 373.942 14.102 374.876 14.102C375.968 14.102 376.924 14.382 377.746 14.942C378.567 15.502 379.141 16.2767 379.468 17.266H377.214C376.99 16.7993 376.672 16.4493 376.262 16.216C375.86 15.9827 375.394 15.866 374.862 15.866C374.292 15.866 373.784 16.0013 373.336 16.272C372.897 16.5333 372.552 16.9067 372.3 17.392C372.057 17.8773 371.936 18.4467 371.936 19.1C371.936 19.744 372.057 20.3133 372.3 20.808C372.552 21.2933 372.897 21.6713 373.336 21.942C373.784 22.2033 374.292 22.334 374.862 22.334C375.394 22.334 375.86 22.2173 376.262 21.984C376.672 21.7413 376.99 21.3867 377.214 20.92H379.468C379.141 21.9187 378.567 22.698 377.746 23.258C376.934 23.8087 375.977 24.084 374.876 24.084C373.942 24.084 373.098 23.874 372.342 23.454C371.595 23.0247 371.002 22.432 370.564 21.676C370.134 20.92 369.92 20.0613 369.92 19.1ZM383.102 22.446H386.322V24H381.142V14.228H383.102V22.446ZM389.528 14.228V24H387.568V14.228H389.528ZM390.988 19.1C390.988 18.1387 391.203 17.28 391.632 16.524C392.071 15.7587 392.663 15.166 393.41 14.746C394.166 14.3167 395.011 14.102 395.944 14.102C397.036 14.102 397.993 14.382 398.814 14.942C399.635 15.502 400.209 16.2767 400.536 17.266H398.282C398.058 16.7993 397.741 16.4493 397.33 16.216C396.929 15.9827 396.462 15.866 395.93 15.866C395.361 15.866 394.852 16.0013 394.404 16.272C393.965 16.5333 393.62 16.9067 393.368 17.392C393.125 17.8773 393.004 18.4467 393.004 19.1C393.004 19.744 393.125 20.3133 393.368 20.808C393.62 21.2933 393.965 21.6713 394.404 21.942C394.852 22.2033 395.361 22.334 395.93 22.334C396.462 22.334 396.929 22.2173 397.33 21.984C397.741 21.7413 398.058 21.3867 398.282 20.92H400.536C400.209 21.9187 399.635 22.698 398.814 23.258C398.002 23.8087 397.045 24.084 395.944 24.084C395.011 24.084 394.166 23.874 393.41 23.454C392.663 23.0247 392.071 22.432 391.632 21.676C391.203 20.92 390.988 20.0613 390.988 19.1ZM407.726 24L404.17 19.646V24H402.21V14.228H404.17V18.61L407.726 14.228H410.092L406.06 19.072L410.204 24H407.726ZM422.935 14.228V24H420.975V19.842H416.789V24H414.829V14.228H416.789V18.246H420.975V14.228H422.935ZM426.824 15.81V18.26H430.114V19.814H426.824V22.404H430.534V24H424.864V14.214H430.534V15.81H426.824ZM437.356 24L435.2 20.192H434.276V24H432.316V14.228H435.984C436.74 14.228 437.384 14.3633 437.916 14.634C438.448 14.8953 438.844 15.2547 439.106 15.712C439.376 16.16 439.512 16.664 439.512 17.224C439.512 17.868 439.325 18.4513 438.952 18.974C438.578 19.4873 438.023 19.842 437.286 20.038L439.624 24H437.356ZM434.276 18.722H435.914C436.446 18.722 436.842 18.596 437.104 18.344C437.365 18.0827 437.496 17.7233 437.496 17.266C437.496 16.818 437.365 16.4727 437.104 16.23C436.842 15.978 436.446 15.852 435.914 15.852H434.276V18.722ZM443.244 15.81V18.26H446.534V19.814H443.244V22.404H446.954V24H441.284V14.214H446.954V15.81H443.244Z" fill="white"/>
<path d="M32.1619 12.0518C30.1966 10.0849 27.583 9.00111 24.7984 9C19.0609 9 14.3913 13.6678 14.389 19.4053C14.3883 21.2393 14.8676 23.0296 15.7785 24.6076L14.3018 30L19.8199 28.553C21.3403 29.382 23.0521 29.8188 24.7943 29.8196H24.7985C30.5354 29.8196 35.2055 25.1512 35.2078 19.4136C35.2089 16.6332 34.1272 14.0187 32.1619 12.0518ZM24.7985 28.0621H24.795C23.2425 28.0615 21.7198 27.6446 20.3915 26.8565L20.0755 26.6691L16.801 27.5278L17.675 24.3362L17.4693 24.0089C16.6032 22.6319 16.1458 21.0402 16.1465 19.406C16.1484 14.6373 20.0296 10.7575 24.8019 10.7575C27.1127 10.7584 29.2851 11.6592 30.9185 13.294C32.552 14.9288 33.4511 17.1019 33.4503 19.413C33.4484 24.1821 29.5672 28.0621 24.7985 28.0621ZM29.5442 21.5844C29.2841 21.4543 28.0054 20.8252 27.767 20.7385C27.5286 20.6517 27.3552 20.6083 27.1817 20.8686C27.0084 21.1289 26.51 21.7146 26.3582 21.8881C26.2065 22.0616 26.0548 22.0833 25.7947 21.9532C25.5346 21.823 24.6965 21.5485 23.7031 20.6627C22.9299 19.9733 22.4079 19.1218 22.2562 18.8614C22.1045 18.6011 22.24 18.4604 22.3702 18.3308C22.4872 18.2143 22.6303 18.0271 22.7604 17.8753C22.8904 17.7235 22.9338 17.6149 23.0205 17.4414C23.1072 17.2679 23.0638 17.116 22.9988 16.9859C22.9338 16.8558 22.4136 15.576 22.1968 15.0554C21.9857 14.5484 21.7713 14.617 21.6116 14.609C21.4601 14.6015 21.2865 14.5999 21.1131 14.5999C20.9398 14.5999 20.658 14.6649 20.4196 14.9252C20.1812 15.1855 19.5093 15.8146 19.5093 17.0944C19.5093 18.3741 20.4412 19.6105 20.5713 19.784C20.7013 19.9576 22.4053 22.5839 25.0144 23.7101C25.635 23.978 26.1194 24.138 26.4972 24.2579C27.1202 24.4557 27.6872 24.4278 28.1354 24.3609C28.6351 24.2862 29.6742 23.7319 29.891 23.1245C30.1077 22.5171 30.1077 21.9966 30.0427 21.8881C29.9777 21.7797 29.8043 21.7146 29.5442 21.5844Z" fill="white"/>
<defs>
<linearGradient id="paint0_linear_48_983" x1="17.5007" y1="0" x2="17.5007" y2="39" gradientUnits="userSpaceOnUse">
<stop stop-color="#61FD7D"/>
<stop offset="1" stop-color="#2BB826"/>
</linearGradient>
</defs>
</svg>
